# xmcd
# Track frame offsets:
# 150
# 15703
# 32068
# 50137
# 65448
# 82767
# 101177
# 118310
# 135500
# 148635
# 168708
# 183944
#
# Disc length: 2706 seconds
# Revision: 0
# Processed by: cddbd v1.4PL0 Copyright (c) Steve Scherf et al.
# Submitted via: VisiTrax 2.9.5.181 - For more info visit www.synapsa.com
#
DISCID=a90a900c
DTITLE=Terri Clark - Pain To Kill
DYEAR=1900
DGENRE=
TTITLE0=I Just Wnna Be Mad
TTITLE1=Three Mississippi
TTITLE2=Pain To Kill
TTITLE3=I Just Called To Say Goodbye
TTITLE4=I Wanna Do It All
TTITLE5=The One You Love
TTITLE6=Almost Gone
TTITLE7=Working Girl
TTITLE8=Better Than You
TTITLE9=Not A Bad Thing
TTITLE10=The First To Fall
TTITLE11=God And Me
EXTD=
EXTT0=
EXTT1=
EXTT2=
EXTT3=
EXTT4=
EXTT5=
EXTT6=
EXTT7=
EXTT8=
EXTT9=
EXTT10=
EXTT11=
PLAYORDER=
